<svg xmlns="http://www.w3.org/2000/svg" viewBox="0 0 200 200" role="img" aria-label="Corgi stage 3">
  <ellipse cx="100" cy="125" rx="68" ry="57" fill="#de9251"/>
  <ellipse cx="100" cy="132" rx="44" ry="39" fill="#ffddb0"/>
  <ellipse cx="68" cy="80" rx="22" ry="28" fill="#de9251" transform="rotate(-14 68 80)"/>
  <ellipse cx="132" cy="80" rx="22" ry="28" fill="#de9251" transform="rotate(14 132 80)"/>
  <circle cx="82" cy="98" r="11.8" fill="#fff"/>
  <circle cx="118" cy="98" r="11.8" fill="#fff"/>
  <circle cx="84" cy="100" r="6.8" fill="#2f211f"/>
  <circle cx="120" cy="100" r="6.8" fill="#2f211f"/>
  <circle cx="86" cy="97" r="2.2" fill="#fff"/>
  <circle cx="122" cy="97" r="2.2" fill="#fff"/>
  <ellipse cx="100" cy="116" rx="12" ry="9" fill="#422a24"/>
  <path d="M86 126 Q100 140 114 126" stroke="#422a24" stroke-width="3" fill="none" stroke-linecap="round"/>
  <rect x="54" y="160" width="24" height="25" rx="8" fill="#c97f45"/>
  <rect x="122" y="160" width="24" height="25" rx="8" fill="#c97f45"/>
  <path d="M156 136 Q182 138 182 120" stroke="#efbe82" stroke-width="10" fill="none" stroke-linecap="round"/>
</svg>
