<svg xmlns="http://www.w3.org/2000/svg" viewBox="0 0 200 200" role="img" aria-label="Penguin stage 2">
  <ellipse cx="100" cy="122" rx="62" ry="64" fill="#56afd1"/>
  <ellipse cx="100" cy="129" rx="40" ry="45" fill="#d5effa"/>
  <circle cx="100" cy="72" r="44" fill="#62bad8"/>
  <ellipse cx="82" cy="70" rx="12" ry="13" fill="#fff"/>
  <ellipse cx="118" cy="70" rx="12" ry="13" fill="#fff"/>
  <ellipse cx="84" cy="73" rx="7" ry="8" fill="#2d3748"/>
  <ellipse cx="120" cy="73" rx="7" ry="8" fill="#2d3748"/>
  <circle cx="87" cy="69" r="2.3" fill="#fff"/>
  <circle cx="123" cy="69" r="2.3" fill="#fff"/>
  <path d="M86 92 Q100 104 114 92" stroke="#2d3748" stroke-width="3" fill="none" stroke-linecap="round"/>
  <ellipse cx="60" cy="120" rx="15" ry="9" fill="#56afd1" transform="rotate(-18 60 120)"/>
  <ellipse cx="140" cy="120" rx="15" ry="9" fill="#56afd1" transform="rotate(18 140 120)"/>
  <ellipse cx="78" cy="176" rx="17" ry="9" fill="#468fad"/>
  <ellipse cx="122" cy="176" rx="17" ry="9" fill="#468fad"/>
</svg>
