<svg xmlns="http://www.w3.org/2000/svg" viewBox="0 0 200 200" role="img" aria-label="Penguin stage 3">
  <path d="M52 96 Q28 80 30 58 Q48 68 58 90" fill="#4e97bc" opacity="0.8"/>
  <path d="M148 96 Q172 80 170 58 Q152 68 142 90" fill="#4e97bc" opacity="0.8"/>
  <ellipse cx="100" cy="124" rx="66" ry="66" fill="#2f85af"/>
  <ellipse cx="100" cy="129" rx="42" ry="46" fill="#95d1eb" opacity="0.7"/>
  <path d="M62 58 Q100 22 138 58 L132 94 Q100 108 68 94 Z" fill="#3a97c4"/>
  <circle cx="84" cy="72" r="11" fill="#fff"/>
  <circle cx="116" cy="72" r="11" fill="#fff"/>
  <circle cx="86" cy="74" r="6.4" fill="#183244"/>
  <circle cx="118" cy="74" r="6.4" fill="#183244"/>
  <circle cx="88" cy="71" r="2" fill="#fff"/>
  <circle cx="120" cy="71" r="2" fill="#fff"/>
  <path d="M88 92 Q100 102 112 92" stroke="#153041" stroke-width="3" fill="none" stroke-linecap="round"/>
  <ellipse cx="76" cy="179" rx="18" ry="9" fill="#1f6d95"/>
  <ellipse cx="124" cy="179" rx="18" ry="9" fill="#1f6d95"/>
</svg>
